<svg xmlns="http://www.w3.org/2000/svg" xmlns:xlink="http://www.w3.org/1999/xlink" width="772.254" height="772.254" viewBox="0 0 772.254 772.254">
  <defs>
    <linearGradient id="linear-gradient" x1="0.5" y1="1" x2="0.5" gradientUnits="objectBoundingBox">
      <stop offset="0" stop-color="#f8ca6b"/>
      <stop offset="1" stop-color="#f15f1e"/>
    </linearGradient>
    <filter id="Ellipse_13" x="217.5" y="206.627" width="162" height="162" filterUnits="userSpaceOnUse">
      <feOffset dx="-3" dy="3" input="SourceAlpha"/>
      <feGaussianBlur stdDeviation="3.5" result="blur"/>
      <feFlood flood-color="#eaeaea"/>
      <feComposite operator="in" in2="blur"/>
      <feComposite in="SourceGraphic"/>
    </filter>
    <filter id="Ellipse_253" x="199.5" y="409.627" width="162" height="162" filterUnits="userSpaceOnUse">
      <feOffset dx="-3" dy="3" input="SourceAlpha"/>
      <feGaussianBlur stdDeviation="3.5" result="blur-2"/>
      <feFlood flood-color="#eaeaea"/>
      <feComposite operator="in" in2="blur-2"/>
      <feComposite in="SourceGraphic"/>
    </filter>
    <filter id="Ellipse_13-2" x="293.5" y="289.627" width="223" height="223" filterUnits="userSpaceOnUse">
      <feOffset dx="-3" dy="3" input="SourceAlpha"/>
      <feGaussianBlur stdDeviation="3.5" result="blur-3"/>
      <feFlood flood-color="#eaeaea"/>
      <feComposite operator="in" in2="blur-3"/>
      <feComposite in="SourceGraphic"/>
    </filter>
  </defs>
  <g id="Group_105" data-name="Group 105" transform="translate(-760 -1067.373)">
    <path id="Path_59" data-name="Path 59" d="M236.127,472.254c130.409,0,236.127-105.718,236.127-236.127S366.537,0,236.127,0,0,105.718,0,236.127,105.718,472.254,236.127,472.254Z" transform="translate(1382.254 1689.627) rotate(180)" opacity="0.342" fill="url(#linear-gradient)"/>
    <g id="Group_11" data-name="Group 11" transform="translate(0 -1158.627)">
      <circle id="Ellipse_15" data-name="Ellipse 15" cx="7.5" cy="7.5" r="7.5" transform="translate(991 2376)" fill="#fff"/>
      <circle id="Ellipse_26" data-name="Ellipse 26" cx="7.5" cy="7.5" r="7.5" transform="translate(991 2411)" fill="#fff"/>
      <circle id="Ellipse_37" data-name="Ellipse 37" cx="7.5" cy="7.5" r="7.5" transform="translate(991 2446)" fill="#fff"/>
      <circle id="Ellipse_48" data-name="Ellipse 48" cx="7.5" cy="7.5" r="7.5" transform="translate(991 2481)" fill="#fff"/>
      <circle id="Ellipse_59" data-name="Ellipse 59" cx="7.5" cy="7.5" r="7.5" transform="translate(991 2516)" fill="#fff"/>
      <circle id="Ellipse_70" data-name="Ellipse 70" cx="7.5" cy="7.5" r="7.5" transform="translate(991 2551)" fill="#fff"/>
      <circle id="Ellipse_81" data-name="Ellipse 81" cx="7.5" cy="7.5" r="7.5" transform="translate(991 2586)" fill="#fff"/>
      <circle id="Ellipse_92" data-name="Ellipse 92" cx="7.5" cy="7.5" r="7.5" transform="translate(991 2621)" fill="#fff"/>
      <circle id="Ellipse_103" data-name="Ellipse 103" cx="7.5" cy="7.5" r="7.5" transform="translate(991 2656)" fill="#fff"/>
      <circle id="Ellipse_136" data-name="Ellipse 136" cx="7.5" cy="7.5" r="7.5" transform="translate(991 2726)" fill="#fff"/>
      <circle id="Ellipse_124" data-name="Ellipse 124" cx="7.5" cy="7.5" r="7.5" transform="translate(991 2691)" fill="#fff"/>
      <circle id="Ellipse_135" data-name="Ellipse 135" cx="7.5" cy="7.5" r="7.5" transform="translate(991 2761)" fill="#fff"/>
      <circle id="Ellipse_20" data-name="Ellipse 20" cx="7.5" cy="7.5" r="7.5" transform="translate(1096 2376)" fill="#fff"/>
      <circle id="Ellipse_29" data-name="Ellipse 29" cx="7.5" cy="7.5" r="7.5" transform="translate(1096 2411)" fill="#fff"/>
      <circle id="Ellipse_40" data-name="Ellipse 40" cx="7.5" cy="7.5" r="7.5" transform="translate(1096 2446)" fill="#fff"/>
      <circle id="Ellipse_51" data-name="Ellipse 51" cx="7.5" cy="7.5" r="7.5" transform="translate(1096 2481)" fill="#fff"/>
      <circle id="Ellipse_62" data-name="Ellipse 62" cx="7.5" cy="7.5" r="7.5" transform="translate(1096 2516)" fill="#fff"/>
      <circle id="Ellipse_73" data-name="Ellipse 73" cx="7.5" cy="7.5" r="7.5" transform="translate(1096 2551)" fill="#fff"/>
      <circle id="Ellipse_84" data-name="Ellipse 84" cx="7.5" cy="7.5" r="7.5" transform="translate(1096 2586)" fill="#fff"/>
      <circle id="Ellipse_95" data-name="Ellipse 95" cx="7.5" cy="7.5" r="7.5" transform="translate(1096 2621)" fill="#fff"/>
      <circle id="Ellipse_106" data-name="Ellipse 106" cx="7.5" cy="7.5" r="7.5" transform="translate(1096 2656)" fill="#fff"/>
      <circle id="Ellipse_138" data-name="Ellipse 138" cx="7.5" cy="7.5" r="7.5" transform="translate(1096 2726)" fill="#fff"/>
      <circle id="Ellipse_121" data-name="Ellipse 121" cx="7.5" cy="7.5" r="7.5" transform="translate(1096 2691)" fill="#fff"/>
      <circle id="Ellipse_128" data-name="Ellipse 128" cx="7.5" cy="7.5" r="7.5" transform="translate(1096 2761)" fill="#fff"/>
      <circle id="Ellipse_23" data-name="Ellipse 23" cx="7.5" cy="7.5" r="7.5" transform="translate(1201 2376)" fill="#fff"/>
      <circle id="Ellipse_32" data-name="Ellipse 32" cx="7.5" cy="7.5" r="7.5" transform="translate(1201 2411)" fill="#fff"/>
      <circle id="Ellipse_43" data-name="Ellipse 43" cx="7.5" cy="7.5" r="7.5" transform="translate(1201 2446)" fill="#fff"/>
      <circle id="Ellipse_54" data-name="Ellipse 54" cx="7.5" cy="7.5" r="7.5" transform="translate(1201 2481)" fill="#fff"/>
      <circle id="Ellipse_65" data-name="Ellipse 65" cx="7.5" cy="7.5" r="7.5" transform="translate(1201 2516)" fill="#fff"/>
      <circle id="Ellipse_76" data-name="Ellipse 76" cx="7.5" cy="7.5" r="7.5" transform="translate(1201 2551)" fill="#fff"/>
      <circle id="Ellipse_87" data-name="Ellipse 87" cx="7.5" cy="7.5" r="7.5" transform="translate(1201 2586)" fill="#fff"/>
      <circle id="Ellipse_98" data-name="Ellipse 98" cx="7.5" cy="7.5" r="7.5" transform="translate(1201 2621)" fill="#fff"/>
      <circle id="Ellipse_109" data-name="Ellipse 109" cx="7.5" cy="7.5" r="7.5" transform="translate(1201 2656)" fill="#fff"/>
      <circle id="Ellipse_141" data-name="Ellipse 141" cx="7.5" cy="7.5" r="7.5" transform="translate(1201 2726)" fill="#fff"/>
      <circle id="Ellipse_117" data-name="Ellipse 117" cx="7.5" cy="7.5" r="7.5" transform="translate(1201 2691)" fill="#fff"/>
      <circle id="Ellipse_129" data-name="Ellipse 129" cx="7.5" cy="7.5" r="7.5" transform="translate(1201 2761)" fill="#fff"/>
      <circle id="Ellipse_16" data-name="Ellipse 16" cx="7.5" cy="7.5" r="7.5" transform="translate(1026 2376)" fill="#fff"/>
      <circle id="Ellipse_27" data-name="Ellipse 27" cx="7.5" cy="7.5" r="7.5" transform="translate(1026 2411)" fill="#fff"/>
      <circle id="Ellipse_38" data-name="Ellipse 38" cx="7.5" cy="7.5" r="7.5" transform="translate(1026 2446)" fill="#fff"/>
      <circle id="Ellipse_49" data-name="Ellipse 49" cx="7.5" cy="7.5" r="7.5" transform="translate(1026 2481)" fill="#fff"/>
      <circle id="Ellipse_60" data-name="Ellipse 60" cx="7.5" cy="7.5" r="7.5" transform="translate(1026 2516)" fill="#fff"/>
      <circle id="Ellipse_71" data-name="Ellipse 71" cx="7.5" cy="7.5" r="7.5" transform="translate(1026 2551)" fill="#fff"/>
      <circle id="Ellipse_82" data-name="Ellipse 82" cx="7.5" cy="7.5" r="7.5" transform="translate(1026 2586)" fill="#fff"/>
      <circle id="Ellipse_93" data-name="Ellipse 93" cx="7.5" cy="7.5" r="7.5" transform="translate(1026 2621)" fill="#fff"/>
      <circle id="Ellipse_104" data-name="Ellipse 104" cx="7.5" cy="7.5" r="7.5" transform="translate(1026 2656)" fill="#fff"/>
      <circle id="Ellipse_137" data-name="Ellipse 137" cx="7.5" cy="7.5" r="7.5" transform="translate(1026 2726)" fill="#fff"/>
      <circle id="Ellipse_123" data-name="Ellipse 123" cx="7.5" cy="7.5" r="7.5" transform="translate(1026 2691)" fill="#fff"/>
      <circle id="Ellipse_133" data-name="Ellipse 133" cx="7.5" cy="7.5" r="7.5" transform="translate(1026 2761)" fill="#fff"/>
      <circle id="Ellipse_19" data-name="Ellipse 19" cx="7.5" cy="7.5" r="7.5" transform="translate(1131 2376)" fill="#fff"/>
      <circle id="Ellipse_30" data-name="Ellipse 30" cx="7.5" cy="7.5" r="7.5" transform="translate(1131 2411)" fill="#fff"/>
      <circle id="Ellipse_41" data-name="Ellipse 41" cx="7.5" cy="7.5" r="7.5" transform="translate(1131 2446)" fill="#fff"/>
      <circle id="Ellipse_52" data-name="Ellipse 52" cx="7.5" cy="7.5" r="7.5" transform="translate(1131 2481)" fill="#fff"/>
      <circle id="Ellipse_63" data-name="Ellipse 63" cx="7.5" cy="7.5" r="7.5" transform="translate(1131 2516)" fill="#fff"/>
      <circle id="Ellipse_74" data-name="Ellipse 74" cx="7.5" cy="7.5" r="7.5" transform="translate(1131 2551)" fill="#fff"/>
      <circle id="Ellipse_85" data-name="Ellipse 85" cx="7.5" cy="7.5" r="7.5" transform="translate(1131 2586)" fill="#fff"/>
      <circle id="Ellipse_96" data-name="Ellipse 96" cx="7.5" cy="7.5" r="7.5" transform="translate(1131 2621)" fill="#fff"/>
      <circle id="Ellipse_107" data-name="Ellipse 107" cx="7.5" cy="7.5" r="7.5" transform="translate(1131 2656)" fill="#fff"/>
      <circle id="Ellipse_140" data-name="Ellipse 140" cx="7.5" cy="7.5" r="7.5" transform="translate(1131 2726)" fill="#fff"/>
      <circle id="Ellipse_118" data-name="Ellipse 118" cx="7.5" cy="7.5" r="7.5" transform="translate(1131 2691)" fill="#fff"/>
      <circle id="Ellipse_130" data-name="Ellipse 130" cx="7.5" cy="7.5" r="7.5" transform="translate(1131 2761)" fill="#fff"/>
      <circle id="Ellipse_22" data-name="Ellipse 22" cx="7.5" cy="7.5" r="7.5" transform="translate(1236 2376)" fill="#fff"/>
      <circle id="Ellipse_33" data-name="Ellipse 33" cx="7.5" cy="7.5" r="7.5" transform="translate(1236 2411)" fill="#fff"/>
      <circle id="Ellipse_44" data-name="Ellipse 44" cx="7.5" cy="7.5" r="7.5" transform="translate(1236 2446)" fill="#fff"/>
      <circle id="Ellipse_55" data-name="Ellipse 55" cx="7.5" cy="7.5" r="7.5" transform="translate(1236 2481)" fill="#fff"/>
      <circle id="Ellipse_66" data-name="Ellipse 66" cx="7.5" cy="7.5" r="7.5" transform="translate(1236 2516)" fill="#fff"/>
      <circle id="Ellipse_77" data-name="Ellipse 77" cx="7.5" cy="7.5" r="7.5" transform="translate(1236 2551)" fill="#fff"/>
      <circle id="Ellipse_88" data-name="Ellipse 88" cx="7.5" cy="7.5" r="7.5" transform="translate(1236 2586)" fill="#fff"/>
      <circle id="Ellipse_99" data-name="Ellipse 99" cx="7.5" cy="7.5" r="7.5" transform="translate(1236 2621)" fill="#fff"/>
      <circle id="Ellipse_110" data-name="Ellipse 110" cx="7.5" cy="7.5" r="7.5" transform="translate(1236 2656)" fill="#fff"/>
      <circle id="Ellipse_142" data-name="Ellipse 142" cx="7.5" cy="7.5" r="7.5" transform="translate(1236 2726)" fill="#fff"/>
      <circle id="Ellipse_119" data-name="Ellipse 119" cx="7.5" cy="7.5" r="7.5" transform="translate(1236 2691)" fill="#fff"/>
      <circle id="Ellipse_131" data-name="Ellipse 131" cx="7.5" cy="7.5" r="7.5" transform="translate(1236 2761)" fill="#fff"/>
      <circle id="Ellipse_25" data-name="Ellipse 25" cx="7.5" cy="7.5" r="7.5" transform="translate(1306 2376)" fill="#fff"/>
      <circle id="Ellipse_35" data-name="Ellipse 35" cx="7.5" cy="7.5" r="7.5" transform="translate(1306 2411)" fill="#fff"/>
      <circle id="Ellipse_46" data-name="Ellipse 46" cx="7.5" cy="7.5" r="7.5" transform="translate(1306 2446)" fill="#fff"/>
      <circle id="Ellipse_57" data-name="Ellipse 57" cx="7.5" cy="7.5" r="7.5" transform="translate(1306 2481)" fill="#fff"/>
      <circle id="Ellipse_68" data-name="Ellipse 68" cx="7.5" cy="7.5" r="7.5" transform="translate(1306 2516)" fill="#fff"/>
      <circle id="Ellipse_79" data-name="Ellipse 79" cx="7.5" cy="7.5" r="7.5" transform="translate(1306 2551)" fill="#fff"/>
      <circle id="Ellipse_90" data-name="Ellipse 90" cx="7.5" cy="7.5" r="7.5" transform="translate(1306 2586)" fill="#fff"/>
      <circle id="Ellipse_101" data-name="Ellipse 101" cx="7.5" cy="7.5" r="7.5" transform="translate(1306 2621)" fill="#fff"/>
      <circle id="Ellipse_112" data-name="Ellipse 112" cx="7.5" cy="7.5" r="7.5" transform="translate(1306 2656)" fill="#fff"/>
      <circle id="Ellipse_145" data-name="Ellipse 145" cx="7.5" cy="7.5" r="7.5" transform="translate(1306 2726)" fill="#fff"/>
      <circle id="Ellipse_114" data-name="Ellipse 114" cx="7.5" cy="7.5" r="7.5" transform="translate(1306 2691)" fill="#fff"/>
      <circle id="Ellipse_126" data-name="Ellipse 126" cx="7.5" cy="7.5" r="7.5" transform="translate(1306 2761)" fill="#fff"/>
      <circle id="Ellipse_17" data-name="Ellipse 17" cx="7.5" cy="7.5" r="7.5" transform="translate(1061 2376)" fill="#fff"/>
      <circle id="Ellipse_28" data-name="Ellipse 28" cx="7.5" cy="7.5" r="7.5" transform="translate(1061 2411)" fill="#fff"/>
      <circle id="Ellipse_39" data-name="Ellipse 39" cx="7.5" cy="7.5" r="7.5" transform="translate(1061 2446)" fill="#fff"/>
      <circle id="Ellipse_50" data-name="Ellipse 50" cx="7.5" cy="7.5" r="7.5" transform="translate(1061 2481)" fill="#fff"/>
      <circle id="Ellipse_61" data-name="Ellipse 61" cx="7.5" cy="7.5" r="7.5" transform="translate(1061 2516)" fill="#fff"/>
      <circle id="Ellipse_72" data-name="Ellipse 72" cx="7.5" cy="7.5" r="7.5" transform="translate(1061 2551)" fill="#fff"/>
      <circle id="Ellipse_83" data-name="Ellipse 83" cx="7.5" cy="7.5" r="7.5" transform="translate(1061 2586)" fill="#fff"/>
      <circle id="Ellipse_94" data-name="Ellipse 94" cx="7.5" cy="7.5" r="7.5" transform="translate(1061 2621)" fill="#fff"/>
      <circle id="Ellipse_105" data-name="Ellipse 105" cx="7.5" cy="7.5" r="7.5" transform="translate(1061 2656)" fill="#fff"/>
      <circle id="Ellipse_139" data-name="Ellipse 139" cx="7.5" cy="7.5" r="7.5" transform="translate(1061 2726)" fill="#fff"/>
      <circle id="Ellipse_122" data-name="Ellipse 122" cx="7.5" cy="7.5" r="7.5" transform="translate(1061 2691)" fill="#fff"/>
      <circle id="Ellipse_134" data-name="Ellipse 134" cx="7.5" cy="7.5" r="7.5" transform="translate(1061 2761)" fill="#fff"/>
      <circle id="Ellipse_18" data-name="Ellipse 18" cx="7.5" cy="7.5" r="7.5" transform="translate(1166 2376)" fill="#fff"/>
      <circle id="Ellipse_31" data-name="Ellipse 31" cx="7.5" cy="7.5" r="7.5" transform="translate(1166 2411)" fill="#fff"/>
      <circle id="Ellipse_42" data-name="Ellipse 42" cx="7.5" cy="7.5" r="7.5" transform="translate(1166 2446)" fill="#fff"/>
      <circle id="Ellipse_53" data-name="Ellipse 53" cx="7.5" cy="7.5" r="7.5" transform="translate(1166 2481)" fill="#fff"/>
      <circle id="Ellipse_64" data-name="Ellipse 64" cx="7.5" cy="7.5" r="7.5" transform="translate(1166 2516)" fill="#fff"/>
      <circle id="Ellipse_75" data-name="Ellipse 75" cx="7.5" cy="7.5" r="7.5" transform="translate(1166 2551)" fill="#fff"/>
      <circle id="Ellipse_86" data-name="Ellipse 86" cx="7.5" cy="7.5" r="7.5" transform="translate(1166 2586)" fill="#fff"/>
      <circle id="Ellipse_97" data-name="Ellipse 97" cx="7.5" cy="7.5" r="7.5" transform="translate(1166 2621)" fill="#fff"/>
      <circle id="Ellipse_108" data-name="Ellipse 108" cx="7.5" cy="7.5" r="7.5" transform="translate(1166 2656)" fill="#fff"/>
      <circle id="Ellipse_143" data-name="Ellipse 143" cx="7.5" cy="7.5" r="7.5" transform="translate(1166 2726)" fill="#fff"/>
      <circle id="Ellipse_120" data-name="Ellipse 120" cx="7.5" cy="7.5" r="7.5" transform="translate(1166 2691)" fill="#fff"/>
      <circle id="Ellipse_132" data-name="Ellipse 132" cx="7.5" cy="7.5" r="7.5" transform="translate(1166 2761)" fill="#fff"/>
      <circle id="Ellipse_21" data-name="Ellipse 21" cx="7.5" cy="7.5" r="7.5" transform="translate(1271 2376)" fill="#fff"/>
      <circle id="Ellipse_34" data-name="Ellipse 34" cx="7.5" cy="7.5" r="7.5" transform="translate(1271 2411)" fill="#fff"/>
      <circle id="Ellipse_45" data-name="Ellipse 45" cx="7.5" cy="7.5" r="7.5" transform="translate(1271 2446)" fill="#fff"/>
      <circle id="Ellipse_56" data-name="Ellipse 56" cx="7.5" cy="7.5" r="7.5" transform="translate(1271 2481)" fill="#fff"/>
      <circle id="Ellipse_67" data-name="Ellipse 67" cx="7.5" cy="7.5" r="7.5" transform="translate(1271 2516)" fill="#fff"/>
      <circle id="Ellipse_78" data-name="Ellipse 78" cx="7.5" cy="7.5" r="7.5" transform="translate(1271 2551)" fill="#fff"/>
      <circle id="Ellipse_89" data-name="Ellipse 89" cx="7.5" cy="7.5" r="7.5" transform="translate(1271 2586)" fill="#fff"/>
      <circle id="Ellipse_100" data-name="Ellipse 100" cx="7.5" cy="7.5" r="7.5" transform="translate(1271 2621)" fill="#fff"/>
      <circle id="Ellipse_111" data-name="Ellipse 111" cx="7.5" cy="7.5" r="7.5" transform="translate(1271 2656)" fill="#fff"/>
      <circle id="Ellipse_144" data-name="Ellipse 144" cx="7.5" cy="7.5" r="7.5" transform="translate(1271 2726)" fill="#fff"/>
      <circle id="Ellipse_115" data-name="Ellipse 115" cx="7.5" cy="7.5" r="7.5" transform="translate(1271 2691)" fill="#fff"/>
      <circle id="Ellipse_127" data-name="Ellipse 127" cx="7.5" cy="7.5" r="7.5" transform="translate(1271 2761)" fill="#fff"/>
      <circle id="Ellipse_24" data-name="Ellipse 24" cx="7.5" cy="7.5" r="7.5" transform="translate(1341 2376)" fill="#fff"/>
      <circle id="Ellipse_36" data-name="Ellipse 36" cx="7.5" cy="7.5" r="7.5" transform="translate(1341 2411)" fill="#fff"/>
      <circle id="Ellipse_47" data-name="Ellipse 47" cx="7.5" cy="7.5" r="7.5" transform="translate(1341 2446)" fill="#fff"/>
      <circle id="Ellipse_58" data-name="Ellipse 58" cx="7.5" cy="7.5" r="7.5" transform="translate(1341 2481)" fill="#fff"/>
      <circle id="Ellipse_69" data-name="Ellipse 69" cx="7.5" cy="7.5" r="7.5" transform="translate(1341 2516)" fill="#fff"/>
      <circle id="Ellipse_80" data-name="Ellipse 80" cx="7.5" cy="7.5" r="7.5" transform="translate(1341 2551)" fill="#fff"/>
      <circle id="Ellipse_91" data-name="Ellipse 91" cx="7.5" cy="7.5" r="7.5" transform="translate(1341 2586)" fill="#fff"/>
      <circle id="Ellipse_102" data-name="Ellipse 102" cx="7.5" cy="7.5" r="7.5" transform="translate(1341 2621)" fill="#fff"/>
      <circle id="Ellipse_113" data-name="Ellipse 113" cx="7.5" cy="7.5" r="7.5" transform="translate(1341 2656)" fill="#fff"/>
      <circle id="Ellipse_146" data-name="Ellipse 146" cx="7.5" cy="7.5" r="7.5" transform="translate(1341 2726)" fill="#fff"/>
      <circle id="Ellipse_116" data-name="Ellipse 116" cx="7.5" cy="7.5" r="7.5" transform="translate(1341 2691)" fill="#fff"/>
      <circle id="Ellipse_125" data-name="Ellipse 125" cx="7.5" cy="7.5" r="7.5" transform="translate(1341 2761)" fill="#fff"/>
      <circle id="Ellipse_158" data-name="Ellipse 158" cx="7.5" cy="7.5" r="7.5" transform="translate(991 2796)" fill="#fff"/>
      <circle id="Ellipse_159" data-name="Ellipse 159" cx="7.5" cy="7.5" r="7.5" transform="translate(1096 2796)" fill="#fff"/>
      <circle id="Ellipse_160" data-name="Ellipse 160" cx="7.5" cy="7.5" r="7.5" transform="translate(1201 2796)" fill="#fff"/>
      <circle id="Ellipse_161" data-name="Ellipse 161" cx="7.5" cy="7.5" r="7.5" transform="translate(1026 2796)" fill="#fff"/>
      <circle id="Ellipse_162" data-name="Ellipse 162" cx="7.5" cy="7.5" r="7.5" transform="translate(1131 2796)" fill="#fff"/>
      <circle id="Ellipse_163" data-name="Ellipse 163" cx="7.5" cy="7.5" r="7.5" transform="translate(1236 2796)" fill="#fff"/>
      <circle id="Ellipse_164" data-name="Ellipse 164" cx="7.5" cy="7.5" r="7.5" transform="translate(1306 2796)" fill="#fff"/>
      <circle id="Ellipse_165" data-name="Ellipse 165" cx="7.5" cy="7.5" r="7.5" transform="translate(1061 2796)" fill="#fff"/>
      <circle id="Ellipse_166" data-name="Ellipse 166" cx="7.5" cy="7.5" r="7.5" transform="translate(1166 2796)" fill="#fff"/>
      <circle id="Ellipse_167" data-name="Ellipse 167" cx="7.5" cy="7.5" r="7.5" transform="translate(1271 2796)" fill="#fff"/>
      <circle id="Ellipse_168" data-name="Ellipse 168" cx="7.5" cy="7.5" r="7.5" transform="translate(1341 2796)" fill="#fff"/>
      <circle id="Ellipse_169" data-name="Ellipse 169" cx="7.5" cy="7.5" r="7.5" transform="translate(991 2831)" fill="#fff"/>
      <circle id="Ellipse_170" data-name="Ellipse 170" cx="7.5" cy="7.5" r="7.5" transform="translate(1096 2831)" fill="#fff"/>
      <circle id="Ellipse_171" data-name="Ellipse 171" cx="7.5" cy="7.5" r="7.5" transform="translate(1201 2831)" fill="#fff"/>
      <circle id="Ellipse_172" data-name="Ellipse 172" cx="7.5" cy="7.5" r="7.5" transform="translate(1026 2831)" fill="#fff"/>
      <circle id="Ellipse_173" data-name="Ellipse 173" cx="7.5" cy="7.5" r="7.5" transform="translate(1131 2831)" fill="#fff"/>
      <circle id="Ellipse_174" data-name="Ellipse 174" cx="7.5" cy="7.5" r="7.5" transform="translate(1236 2831)" fill="#fff"/>
      <circle id="Ellipse_175" data-name="Ellipse 175" cx="7.5" cy="7.5" r="7.5" transform="translate(1306 2831)" fill="#fff"/>
      <circle id="Ellipse_176" data-name="Ellipse 176" cx="7.5" cy="7.5" r="7.5" transform="translate(1061 2831)" fill="#fff"/>
      <circle id="Ellipse_177" data-name="Ellipse 177" cx="7.5" cy="7.5" r="7.5" transform="translate(1166 2831)" fill="#fff"/>
      <circle id="Ellipse_178" data-name="Ellipse 178" cx="7.5" cy="7.5" r="7.5" transform="translate(1271 2831)" fill="#fff"/>
      <circle id="Ellipse_179" data-name="Ellipse 179" cx="7.5" cy="7.5" r="7.5" transform="translate(1341 2831)" fill="#fff"/>
      <circle id="Ellipse_180" data-name="Ellipse 180" cx="7.5" cy="7.5" r="7.5" transform="translate(816 2376)" fill="#fff"/>
      <circle id="Ellipse_181" data-name="Ellipse 181" cx="7.5" cy="7.5" r="7.5" transform="translate(816 2411)" fill="#fff"/>
      <circle id="Ellipse_182" data-name="Ellipse 182" cx="7.5" cy="7.5" r="7.5" transform="translate(816 2446)" fill="#fff"/>
      <circle id="Ellipse_183" data-name="Ellipse 183" cx="7.5" cy="7.5" r="7.5" transform="translate(816 2481)" fill="#fff"/>
      <circle id="Ellipse_184" data-name="Ellipse 184" cx="7.5" cy="7.5" r="7.5" transform="translate(816 2516)" fill="#fff"/>
      <circle id="Ellipse_185" data-name="Ellipse 185" cx="7.5" cy="7.5" r="7.5" transform="translate(816 2551)" fill="#fff"/>
      <circle id="Ellipse_186" data-name="Ellipse 186" cx="7.5" cy="7.5" r="7.5" transform="translate(816 2586)" fill="#fff"/>
      <circle id="Ellipse_187" data-name="Ellipse 187" cx="7.5" cy="7.5" r="7.5" transform="translate(816 2621)" fill="#fff"/>
      <circle id="Ellipse_188" data-name="Ellipse 188" cx="7.5" cy="7.5" r="7.5" transform="translate(816 2656)" fill="#fff"/>
      <circle id="Ellipse_189" data-name="Ellipse 189" cx="7.5" cy="7.5" r="7.5" transform="translate(816 2726)" fill="#fff"/>
      <circle id="Ellipse_190" data-name="Ellipse 190" cx="7.5" cy="7.5" r="7.5" transform="translate(816 2691)" fill="#fff"/>
      <circle id="Ellipse_191" data-name="Ellipse 191" cx="7.5" cy="7.5" r="7.5" transform="translate(816 2761)" fill="#fff"/>
      <circle id="Ellipse_192" data-name="Ellipse 192" cx="7.5" cy="7.5" r="7.5" transform="translate(921 2376)" fill="#fff"/>
      <circle id="Ellipse_193" data-name="Ellipse 193" cx="7.5" cy="7.5" r="7.5" transform="translate(921 2411)" fill="#fff"/>
      <circle id="Ellipse_194" data-name="Ellipse 194" cx="7.5" cy="7.5" r="7.5" transform="translate(921 2446)" fill="#fff"/>
      <circle id="Ellipse_195" data-name="Ellipse 195" cx="7.5" cy="7.5" r="7.5" transform="translate(921 2481)" fill="#fff"/>
      <circle id="Ellipse_196" data-name="Ellipse 196" cx="7.5" cy="7.5" r="7.5" transform="translate(921 2516)" fill="#fff"/>
      <circle id="Ellipse_197" data-name="Ellipse 197" cx="7.5" cy="7.5" r="7.5" transform="translate(921 2551)" fill="#fff"/>
      <circle id="Ellipse_198" data-name="Ellipse 198" cx="7.5" cy="7.5" r="7.5" transform="translate(921 2586)" fill="#fff"/>
      <circle id="Ellipse_199" data-name="Ellipse 199" cx="7.5" cy="7.5" r="7.5" transform="translate(921 2621)" fill="#fff"/>
      <circle id="Ellipse_200" data-name="Ellipse 200" cx="7.5" cy="7.5" r="7.5" transform="translate(921 2656)" fill="#fff"/>
      <circle id="Ellipse_201" data-name="Ellipse 201" cx="7.5" cy="7.5" r="7.5" transform="translate(921 2726)" fill="#fff"/>
      <circle id="Ellipse_202" data-name="Ellipse 202" cx="7.5" cy="7.5" r="7.5" transform="translate(921 2691)" fill="#fff"/>
      <circle id="Ellipse_203" data-name="Ellipse 203" cx="7.5" cy="7.5" r="7.5" transform="translate(921 2761)" fill="#fff"/>
      <circle id="Ellipse_204" data-name="Ellipse 204" cx="7.5" cy="7.5" r="7.5" transform="translate(851 2376)" fill="#fff"/>
      <circle id="Ellipse_205" data-name="Ellipse 205" cx="7.5" cy="7.5" r="7.5" transform="translate(851 2411)" fill="#fff"/>
      <circle id="Ellipse_206" data-name="Ellipse 206" cx="7.5" cy="7.5" r="7.5" transform="translate(851 2446)" fill="#fff"/>
      <circle id="Ellipse_207" data-name="Ellipse 207" cx="7.5" cy="7.5" r="7.5" transform="translate(851 2481)" fill="#fff"/>
      <circle id="Ellipse_208" data-name="Ellipse 208" cx="7.5" cy="7.5" r="7.5" transform="translate(851 2516)" fill="#fff"/>
      <circle id="Ellipse_209" data-name="Ellipse 209" cx="7.5" cy="7.5" r="7.5" transform="translate(851 2551)" fill="#fff"/>
      <circle id="Ellipse_210" data-name="Ellipse 210" cx="7.5" cy="7.5" r="7.5" transform="translate(851 2586)" fill="#fff"/>
      <circle id="Ellipse_211" data-name="Ellipse 211" cx="7.5" cy="7.5" r="7.5" transform="translate(851 2621)" fill="#fff"/>
      <circle id="Ellipse_212" data-name="Ellipse 212" cx="7.5" cy="7.5" r="7.5" transform="translate(851 2656)" fill="#fff"/>
      <circle id="Ellipse_213" data-name="Ellipse 213" cx="7.5" cy="7.5" r="7.5" transform="translate(851 2726)" fill="#fff"/>
      <circle id="Ellipse_214" data-name="Ellipse 214" cx="7.5" cy="7.5" r="7.5" transform="translate(851 2691)" fill="#fff"/>
      <circle id="Ellipse_215" data-name="Ellipse 215" cx="7.5" cy="7.5" r="7.5" transform="translate(851 2761)" fill="#fff"/>
      <circle id="Ellipse_216" data-name="Ellipse 216" cx="7.5" cy="7.5" r="7.5" transform="translate(956 2376)" fill="#fff"/>
      <circle id="Ellipse_217" data-name="Ellipse 217" cx="7.5" cy="7.5" r="7.5" transform="translate(956 2411)" fill="#fff"/>
      <circle id="Ellipse_218" data-name="Ellipse 218" cx="7.5" cy="7.5" r="7.5" transform="translate(956 2446)" fill="#fff"/>
      <circle id="Ellipse_219" data-name="Ellipse 219" cx="7.5" cy="7.5" r="7.5" transform="translate(956 2481)" fill="#fff"/>
      <circle id="Ellipse_220" data-name="Ellipse 220" cx="7.5" cy="7.5" r="7.5" transform="translate(956 2516)" fill="#fff"/>
      <circle id="Ellipse_221" data-name="Ellipse 221" cx="7.5" cy="7.5" r="7.5" transform="translate(956 2551)" fill="#fff"/>
      <circle id="Ellipse_222" data-name="Ellipse 222" cx="7.5" cy="7.5" r="7.5" transform="translate(956 2586)" fill="#fff"/>
      <circle id="Ellipse_223" data-name="Ellipse 223" cx="7.5" cy="7.5" r="7.5" transform="translate(956 2621)" fill="#fff"/>
      <circle id="Ellipse_224" data-name="Ellipse 224" cx="7.5" cy="7.5" r="7.5" transform="translate(956 2656)" fill="#fff"/>
      <circle id="Ellipse_225" data-name="Ellipse 225" cx="7.5" cy="7.5" r="7.5" transform="translate(956 2726)" fill="#fff"/>
      <circle id="Ellipse_226" data-name="Ellipse 226" cx="7.5" cy="7.5" r="7.5" transform="translate(956 2691)" fill="#fff"/>
      <circle id="Ellipse_227" data-name="Ellipse 227" cx="7.5" cy="7.5" r="7.5" transform="translate(956 2761)" fill="#fff"/>
      <circle id="Ellipse_228" data-name="Ellipse 228" cx="7.5" cy="7.5" r="7.5" transform="translate(886 2376)" fill="#fff"/>
      <circle id="Ellipse_229" data-name="Ellipse 229" cx="7.5" cy="7.5" r="7.5" transform="translate(886 2411)" fill="#fff"/>
      <circle id="Ellipse_230" data-name="Ellipse 230" cx="7.5" cy="7.5" r="7.5" transform="translate(886 2446)" fill="#fff"/>
      <circle id="Ellipse_231" data-name="Ellipse 231" cx="7.5" cy="7.5" r="7.5" transform="translate(886 2481)" fill="#fff"/>
      <circle id="Ellipse_232" data-name="Ellipse 232" cx="7.5" cy="7.5" r="7.5" transform="translate(886 2516)" fill="#fff"/>
      <circle id="Ellipse_233" data-name="Ellipse 233" cx="7.5" cy="7.5" r="7.5" transform="translate(886 2551)" fill="#fff"/>
      <circle id="Ellipse_234" data-name="Ellipse 234" cx="7.5" cy="7.5" r="7.5" transform="translate(886 2586)" fill="#fff"/>
      <circle id="Ellipse_235" data-name="Ellipse 235" cx="7.5" cy="7.5" r="7.5" transform="translate(886 2621)" fill="#fff"/>
      <circle id="Ellipse_236" data-name="Ellipse 236" cx="7.5" cy="7.5" r="7.5" transform="translate(886 2656)" fill="#fff"/>
      <circle id="Ellipse_237" data-name="Ellipse 237" cx="7.5" cy="7.5" r="7.5" transform="translate(886 2726)" fill="#fff"/>
      <circle id="Ellipse_238" data-name="Ellipse 238" cx="7.5" cy="7.5" r="7.5" transform="translate(886 2691)" fill="#fff"/>
      <circle id="Ellipse_239" data-name="Ellipse 239" cx="7.5" cy="7.5" r="7.5" transform="translate(886 2761)" fill="#fff"/>
      <circle id="Ellipse_240" data-name="Ellipse 240" cx="7.5" cy="7.5" r="7.5" transform="translate(816 2796)" fill="#fff"/>
      <circle id="Ellipse_241" data-name="Ellipse 241" cx="7.5" cy="7.5" r="7.5" transform="translate(921 2796)" fill="#fff"/>
      <circle id="Ellipse_242" data-name="Ellipse 242" cx="7.5" cy="7.5" r="7.5" transform="translate(851 2796)" fill="#fff"/>
      <circle id="Ellipse_243" data-name="Ellipse 243" cx="7.5" cy="7.5" r="7.5" transform="translate(956 2796)" fill="#fff"/>
      <circle id="Ellipse_244" data-name="Ellipse 244" cx="7.5" cy="7.5" r="7.5" transform="translate(886 2796)" fill="#fff"/>
      <circle id="Ellipse_245" data-name="Ellipse 245" cx="7.5" cy="7.5" r="7.5" transform="translate(816 2831)" fill="#fff"/>
      <circle id="Ellipse_246" data-name="Ellipse 246" cx="7.5" cy="7.5" r="7.5" transform="translate(921 2831)" fill="#fff"/>
      <circle id="Ellipse_247" data-name="Ellipse 247" cx="7.5" cy="7.5" r="7.5" transform="translate(851 2831)" fill="#fff"/>
      <circle id="Ellipse_248" data-name="Ellipse 248" cx="7.5" cy="7.5" r="7.5" transform="translate(956 2831)" fill="#fff"/>
      <circle id="Ellipse_249" data-name="Ellipse 249" cx="7.5" cy="7.5" r="7.5" transform="translate(886 2831)" fill="#fff"/>
    </g>
    <g id="Group_55" data-name="Group 55" transform="translate(28 -49.5)">
      <g transform="matrix(1, 0, 0, 1, 732, 1116.87)" filter="url(#Ellipse_13)">
        <g id="Ellipse_13-3" data-name="Ellipse 13" transform="translate(231 214.13)" fill="#fff" stroke="#fdb62b" stroke-width="2" stroke-dasharray="5">
          <circle cx="70.5" cy="70.5" r="70.5" stroke="none"/>
          <circle cx="70.5" cy="70.5" r="69.5" fill="none"/>
        </g>
      </g>
      <g id="Group_52" data-name="Group 52" transform="translate(-19 -14)">
        <text id="_2500" data-name="2500" transform="translate(1016 1408)" fill="#f25b1e" font-size="32" font-family="Gilroy-SemiBold, Gilroy" font-weight="600"><tspan x="0" y="0">2500</tspan></text>
        <text id="Successful_Designs" data-name="Successful
Designs" transform="translate(1053 1431)" fill="#5c5c5c" font-size="16" font-family="Gilroy-Medium, Gilroy" font-weight="500"><tspan x="-38" y="0">Successful</tspan><tspan x="-28" y="19">Designs</tspan></text>
      </g>
    </g>
    <g id="Group_54" data-name="Group 54" transform="translate(28 -49.5)">
      <g transform="matrix(1, 0, 0, 1, 732, 1116.87)" filter="url(#Ellipse_253)">
        <g id="Ellipse_253-2" data-name="Ellipse 253" transform="translate(213 417.13)" fill="#fff" stroke="#fdb62b" stroke-width="2" stroke-dasharray="5">
          <circle cx="70.5" cy="70.5" r="70.5" stroke="none"/>
          <circle cx="70.5" cy="70.5" r="69.5" fill="none"/>
        </g>
      </g>
      <g id="Group_53" data-name="Group 53" transform="translate(-13 -28)">
        <text id="_13_" data-name="13+" transform="translate(1006 1625)" fill="#f25b1e" font-size="32" font-family="Gilroy-SemiBold, Gilroy" font-weight="600"><tspan x="0" y="0">13+</tspan></text>
        <text id="Years_of_Experience" data-name="Years of
Experience" transform="translate(1029 1648)" fill="#5c5c5c" font-size="16" font-family="Gilroy-Medium, Gilroy" font-weight="500"><tspan x="-29" y="0">Years of</tspan><tspan x="-40" y="19">Experience</tspan></text>
      </g>
    </g>
    <g id="Group_56" data-name="Group 56" transform="translate(28 -49.5)">
      <g transform="matrix(1, 0, 0, 1, 732, 1116.87)" filter="url(#Ellipse_13-2)">
        <g id="Ellipse_13-4" data-name="Ellipse 13" transform="translate(307 297.13)" fill="#fff" stroke="#fdb62b" stroke-width="2" stroke-dasharray="5">
          <circle cx="101" cy="101" r="101" stroke="none"/>
          <circle cx="101" cy="101" r="100" fill="none"/>
        </g>
      </g>
      <text id="Projects_Done" data-name="Projects Done" transform="translate(1089 1544)" fill="#5c5c5c" font-size="16" font-family="Gilroy-Medium, Gilroy" font-weight="500"><tspan x="0" y="0">Projects Done</tspan></text>
      <text id="_300" data-name="300" transform="translate(1111 1521)" fill="#f25b1e" font-size="32" font-family="Gilroy-SemiBold, Gilroy" font-weight="600"><tspan x="0" y="0">300</tspan></text>
    </g>
  </g>
</svg>
