<svg xmlns="http://www.w3.org/2000/svg" width="92" height="92" viewBox="0 0 92 92">
  <g id="Group_101" data-name="Group 101" transform="translate(-477 -2412.833)">
    <circle id="Ellipse_157" data-name="Ellipse 157" cx="46" cy="46" r="46" transform="translate(477 2412.833)" fill="#fff6e3"/>
    <g id="Group_49" data-name="Group 49" transform="translate(495.947 2432.146)">
      <path id="Path_164" data-name="Path 164" d="M48.938,39.319a4.7,4.7,0,0,0-7.157-4.032,4.665,4.665,0,0,0,.07-.693,4.725,4.725,0,0,0-9.45,0,4.664,4.664,0,0,0,.07.693,4.725,4.725,0,1,0-2.558,8.743,4.709,4.709,0,1,0,7.214,5.8,4.709,4.709,0,1,0,7.213-5.8,4.725,4.725,0,0,0,4.6-4.711Z" fill="none" stroke="#fdb62b" stroke-linecap="round" stroke-linejoin="round" stroke-width="3"/>
      <path id="Path_165" data-name="Path 165" d="M37.125,40.837a.844.844,0,1,1-.844.844.844.844,0,0,1,.844-.844" fill="none" stroke="#fdb62b" stroke-linecap="round" stroke-linejoin="round" stroke-width="3"/>
      <path id="Path_166" data-name="Path 166" d="M15.876,1.688a6.73,6.73,0,0,1,.675,7.67A2.4,2.4,0,0,1,14,7.313a5.427,5.427,0,0,0-2.813,5.114,6.136,6.136,0,0,0,6.136,6.136,6.219,6.219,0,0,0,6.136-6.136A10.2,10.2,0,0,0,15.876,1.688Z" fill="none" stroke="#fdb62b" stroke-linecap="round" stroke-linejoin="round" stroke-width="3"/>
      <path id="Path_167" data-name="Path 167" d="M20.25,45.563H8.429a3.375,3.375,0,0,1-3.375-3.375V21.938a3.375,3.375,0,0,1,3.375-3.375H25.3a3.375,3.375,0,0,1,3.375,3.375v6.75" fill="none" stroke="#fdb62b" stroke-linecap="round" stroke-linejoin="round" stroke-width="3"/>
      <path id="Path_168" data-name="Path 168" d="M5.054,25.313H8.429A3.375,3.375,0,0,1,11.8,28.688v3.375a3.375,3.375,0,0,0,6.75,0V28.688a3.375,3.375,0,0,1,3.375-3.375h6.75" fill="none" stroke="#fdb62b" stroke-linecap="round" stroke-linejoin="round" stroke-width="3"/>
    </g>
  </g>
</svg>
