<svg xmlns="http://www.w3.org/2000/svg" xmlns:xlink="http://www.w3.org/1999/xlink" width="662" height="662" viewBox="0 0 662 662">
  <defs>
    <linearGradient id="linear-gradient" x1="0.5" x2="0.5" y2="1" gradientUnits="objectBoundingBox">
      <stop offset="0" stop-color="#f0a126"/>
      <stop offset="1" stop-color="#f25b1e"/>
    </linearGradient>
    <filter id="Path_116" x="217.5" y="323.572" width="221" height="121" filterUnits="userSpaceOnUse">
      <feOffset dx="-3" dy="3" input="SourceAlpha"/>
      <feGaussianBlur stdDeviation="3.5" result="blur"/>
      <feFlood flood-color="#f15c1e" flood-opacity="0.514"/>
      <feComposite operator="in" in2="blur"/>
      <feComposite in="SourceGraphic"/>
    </filter>
  </defs>
  <g id="Group_85" data-name="Group 85" transform="translate(150 150)">
    <circle id="Ellipse_250" data-name="Ellipse 250" cx="181" cy="181" r="181" fill="#fff"/>
    <path id="Path_115" data-name="Path 115" d="M3107.072-2765.927v-60.47a22.139,22.139,0,0,0-1.8-8.878,24.088,24.088,0,0,0-4.849-7.306,22.359,22.359,0,0,0-7.193-4.95,22.246,22.246,0,0,0-8.992-1.806,21.863,21.863,0,0,0-8.836,1.806,22.37,22.37,0,0,0-7.193,4.95,22.994,22.994,0,0,0-4.771,7.306,23.02,23.02,0,0,0-1.719,8.878l-.313,60.47h-15.951v-60.47a36.4,36.4,0,0,1,2.893-15.163,38.542,38.542,0,0,1,8.367-12.413,41.073,41.073,0,0,1,12.432-8.406,38.888,38.888,0,0,1,15.091-3.3h.313a38.9,38.9,0,0,1,15.092,3.3,41.089,41.089,0,0,1,12.432,8.406,38.554,38.554,0,0,1,8.365,12.413,36.359,36.359,0,0,1,2.893,15.163v60.47Zm76.854-.247a21.41,21.41,0,0,0-6.465-15.674,21.206,21.206,0,0,0-15.6-6.494v-16.625a37.129,37.129,0,0,1,27.319,11.343,37.479,37.479,0,0,1,11.29,27.45Zm-49.642,0v-99.753h16.547v99.753Zm77.855-.626a41.017,41.017,0,0,0-1.007-8.763,36.525,36.525,0,0,0-2.844-7.987,16.2,16.2,0,0,0,4.778,2.106,22.777,22.777,0,0,0,5.812.7c4.09,0,7.13-.753,9.035-2.238a7.622,7.622,0,0,0,2.153-2.531,6.818,6.818,0,0,0,.716-3.117,6.963,6.963,0,0,0-.876-3.5,7.56,7.56,0,0,0-2.63-2.625c-2.326-1.449-6.546-3.045-12.542-4.744a78.1,78.1,0,0,1-8.449-2.983,36.527,36.527,0,0,1-6.908-4,16.364,16.364,0,0,1-5.262-6.342,17.915,17.915,0,0,1-1.19-3.414l18.954-27.329a30.739,30.739,0,0,1,4.875-.378,31.681,31.681,0,0,1,8.489,1.106,26.95,26.95,0,0,1,7.4,3.317,28.564,28.564,0,0,1,6.1,5.289,31.952,31.952,0,0,1,4.584,7.021l-12.329,7.141a17.136,17.136,0,0,0-5.792-7.194,14.828,14.828,0,0,0-8.449-2.4,11.26,11.26,0,0,0-7.175,2.078,6.6,6.6,0,0,0-2.6,5.382,6.914,6.914,0,0,0,.731,3.185,7.349,7.349,0,0,0,2.191,2.518c1.94,1.45,5.712,3.046,11.213,4.744,2.31.723,4,1.263,5.155,1.651s2.772,1,4.783,1.812a28.869,28.869,0,0,1,4.676,2.292,36.916,36.916,0,0,1,3.773,2.877,14.823,14.823,0,0,1,3.242,3.729,21.06,21.06,0,0,1,1.913,4.637,21.019,21.019,0,0,1,.8,5.915,22.2,22.2,0,0,1-1.873,9.272,19.729,19.729,0,0,1-5.619,7.141,25.78,25.78,0,0,1-8.622,4.557,36.687,36.687,0,0,1-10.882,1.519A43.133,43.133,0,0,1,3212.139-2766.8Zm-144.355-53.354a16.45,16.45,0,0,1,16.411-16.488,16.45,16.45,0,0,1,16.411,16.488,16.45,16.45,0,0,1-16.411,16.489A16.451,16.451,0,0,1,3067.784-2820.155Zm94.078,4.1,18.96-27.708h19.649l-19.219,27.708Z" transform="translate(-2964.449 2945.928)" fill="url(#linear-gradient)"/>
    <g transform="matrix(1, 0, 0, 1, -150, -150)" filter="url(#Path_116)">
      <path id="Path_116-2" data-name="Path 116" d="M3134.284-2848v-99.753h16.547V-2848Zm-50.043-.248a38.841,38.841,0,0,1-15.092-3.3,41.034,41.034,0,0,1-12.431-8.406,38.551,38.551,0,0,1-8.368-12.414,36.41,36.41,0,0,1-2.893-15.164V-2948h15.951l.313,60.469a23,23,0,0,0,1.72,8.878,22.961,22.961,0,0,0,4.769,7.307,22.376,22.376,0,0,0,7.193,4.95,21.872,21.872,0,0,0,8.837,1.808,22.259,22.259,0,0,0,8.992-1.808,22.373,22.373,0,0,0,7.193-4.95,24.069,24.069,0,0,0,4.848-7.307,22.14,22.14,0,0,0,1.8-8.878V-2948h16.264v60.469a36.392,36.392,0,0,1-2.894,15.164,38.544,38.544,0,0,1-8.366,12.414,41.081,41.081,0,0,1-12.433,8.406,38.849,38.849,0,0,1-15.091,3.3Zm127.638-22.114-18.956-27.329a17.834,17.834,0,0,1,1.191-3.414,16.339,16.339,0,0,1,5.26-6.342,36.591,36.591,0,0,1,6.908-4,78.226,78.226,0,0,1,8.45-2.984c6-1.7,10.215-3.293,12.541-4.743a7.553,7.553,0,0,0,2.631-2.624,6.958,6.958,0,0,0,.875-3.5,6.813,6.813,0,0,0-.717-3.117,7.609,7.609,0,0,0-2.152-2.531c-1.9-1.485-4.944-2.238-9.035-2.238a22.767,22.767,0,0,0-5.812.7,16.2,16.2,0,0,0-4.778,2.106,36.449,36.449,0,0,0,2.844-7.987,40.936,40.936,0,0,0,1.007-8.763,43.2,43.2,0,0,1,6.315-.446,36.685,36.685,0,0,1,10.881,1.519,25.78,25.78,0,0,1,8.622,4.557,19.713,19.713,0,0,1,5.62,7.141,22.185,22.185,0,0,1,1.873,9.272,21.032,21.032,0,0,1-.8,5.914,20.97,20.97,0,0,1-1.913,4.636,14.8,14.8,0,0,1-3.242,3.731,36.791,36.791,0,0,1-3.773,2.877,28.781,28.781,0,0,1-4.676,2.291c-2.01.814-3.619,1.424-4.783,1.813s-2.846.928-5.155,1.651c-5.5,1.7-9.272,3.293-11.212,4.744a7.359,7.359,0,0,0-2.192,2.518,6.921,6.921,0,0,0-.73,3.185,6.6,6.6,0,0,0,2.6,5.382,11.26,11.26,0,0,0,7.175,2.078,14.829,14.829,0,0,0,8.449-2.4,17.132,17.132,0,0,0,5.792-7.194l12.33,7.141a32.064,32.064,0,0,1-4.583,7.021,28.634,28.634,0,0,1-6.1,5.289,26.943,26.943,0,0,1-7.4,3.317,31.664,31.664,0,0,1-8.489,1.106A30.783,30.783,0,0,1,3211.879-2870.365Zm-31.057.195-18.96-27.709h19.391l19.219,27.709Zm-113.036-23.606a16.449,16.449,0,0,1,16.41-16.489,16.449,16.449,0,0,1,16.41,16.489,16.449,16.449,0,0,1-16.41,16.489A16.449,16.449,0,0,1,3067.785-2893.777Zm94.077-31.812a21.206,21.206,0,0,0,15.6-6.494,21.408,21.408,0,0,0,6.464-15.673h16.547a37.479,37.479,0,0,1-11.29,27.45,37.125,37.125,0,0,1-27.319,11.342Z" transform="translate(-2814.45 3279.08)" fill="#f15b1e" opacity="0.21"/>
    </g>
    <path id="Path_184" data-name="Path 184" d="M1.258-.153c0,.1.051.153.119.153.544.034,2.108.034,3.179.034,2.873,0,6.035-1.666,6.035-5.814,0-3.162-2.006-5.423-6-5.423-1.564,0-2.72.034-3.213.051-.1.017-.119.051-.119.136ZM3.315-9.384c.408-.017.782-.034,1.258-.034,2.3,0,3.91,1.224,3.91,3.689A3.681,3.681,0,0,1,4.471-1.751c-.442,0-.816,0-1.156-.017Zm16.49,7.667c.017-.085-.017-.136-.119-.136H14.535V-4.777h4.42c.068,0,.119-.017.119-.1V-6.494c0-.1-.034-.119-.119-.119h-4.42v-2.7H19.4c.1,0,.136-.068.119-.153l-.187-1.581c-.017-.1-.051-.119-.153-.119H12.614c-.1,0-.136.051-.136.136v10.9c0,.085.034.136.153.136H19.4c.1,0,.136-.017.153-.136ZM24.225.17c2.567,0,4.131-1.292,4.131-3.281,0-1.343-.629-2.414-2.839-3.332l-.646-.272c-1.343-.561-1.734-.986-1.734-1.6,0-.6.459-1.207,1.921-1.207a5.31,5.31,0,0,1,2.567.561c.1.068.153,0,.153-.068v-1.649c0-.119-.017-.17-.1-.221a6.232,6.232,0,0,0-2.6-.442c-2.567,0-3.944,1.394-3.944,3.213,0,1.275.544,2.329,2.635,3.213l.816.34c1.292.544,1.7,1.02,1.7,1.649,0,.731-.595,1.275-1.989,1.275a5.72,5.72,0,0,1-3.026-.884c-.068-.034-.136,0-.136.068V-.7a.252.252,0,0,0,.119.255A6.47,6.47,0,0,0,24.225.17Zm8.041-11.2c0-.1-.034-.136-.136-.136H30.345c-.085,0-.136.017-.136.136V-.153c0,.1.034.153.136.153H32.13c.1,0,.136-.034.136-.153ZM41.514-4.42v2.635a4.316,4.316,0,0,1-1.292.153,3.692,3.692,0,0,1-3.944-3.944c0-2.465,1.479-3.961,4.216-3.927a5.737,5.737,0,0,1,2.652.493c.068.034.136.017.136-.085v-1.632a.206.206,0,0,0-.1-.2,7.067,7.067,0,0,0-2.754-.408c-3.757,0-6.273,2.3-6.273,5.831C34.153-2.363,36.142.17,40.12.17a9.263,9.263,0,0,0,3.349-.578.115.115,0,0,0,.1-.153V-6.1c0-.1-.017-.136-.136-.136H39.593c-.068,0-.119.017-.119.1v1.513c0,.1.017.136.136.153ZM47.583,0c.1,0,.136-.051.136-.153V-5.831c0-1.547-.017-2.295-.085-3.162h.017c.663,1.649,3.774,7.14,4.658,8.874A.216.216,0,0,0,52.53,0h2.159c.119,0,.17-.034.17-.153V-11.016c0-.1-.034-.153-.153-.153H53.074c-.1,0-.153.051-.153.136v5.661c0,1.6.034,2.159.051,2.635h-.017c-.595-1.275-3.2-6.069-4.454-8.313a.181.181,0,0,0-.2-.119H45.9c-.085,0-.119.034-.119.119v10.9c0,.136.051.153.153.153ZM64.719-1.717c.017-.085-.017-.136-.119-.136H59.449V-4.777h4.42c.068,0,.119-.017.119-.1V-6.494c0-.1-.034-.119-.119-.119h-4.42v-2.7h4.862c.1,0,.136-.068.119-.153l-.187-1.581c-.017-.1-.051-.119-.153-.119H57.528c-.1,0-.136.051-.136.136v10.9c0,.085.034.136.153.136h6.766c.1,0,.136-.017.153-.136ZM68.221,0c.085,0,.136-.034.136-.136V-4.284h1.462c.187,0,.272.085.391.289.748,1.19,1.938,3.145,2.431,3.91A.284.284,0,0,0,72.879,0H75c.1,0,.085-.085.034-.187-.493-.85-2.533-3.893-3.094-4.675a3.16,3.16,0,0,0,2.193-2.992c0-2.176-1.6-3.349-4.318-3.349-1.309,0-2.023.017-3.366.051-.1,0-.119.068-.119.153V-.136c0,.1.034.136.136.136Zm.136-6.035V-9.384c.272-.017.816-.034,1.394-.034,1.445,0,2.346.561,2.346,1.683,0,1.088-.884,1.7-2.261,1.7ZM79.2.17c2.567,0,4.131-1.292,4.131-3.281,0-1.343-.629-2.414-2.839-3.332l-.646-.272c-1.343-.561-1.734-.986-1.734-1.6,0-.6.459-1.207,1.921-1.207a5.31,5.31,0,0,1,2.567.561c.1.068.153,0,.153-.068v-1.649c0-.119-.017-.17-.1-.221a6.232,6.232,0,0,0-2.6-.442c-2.567,0-3.944,1.394-3.944,3.213,0,1.275.544,2.329,2.635,3.213l.816.34c1.292.544,1.7,1.02,1.7,1.649,0,.731-.6,1.275-1.989,1.275a5.72,5.72,0,0,1-3.026-.884c-.068-.034-.136,0-.136.068V-.7a.253.253,0,0,0,.119.255A6.47,6.47,0,0,0,79.2.17Z" transform="translate(196 95.339)" fill="#f25b1e"/>
  </g>
</svg>
