<svg xmlns="http://www.w3.org/2000/svg" width="53.63" height="53.625" viewBox="0 0 53.63 53.625">
  <g id="Group_46" data-name="Group 46" transform="translate(-0.188 -0.188)">
    <path id="Path_138" data-name="Path 138" d="M1.913,30.375A25.715,25.715,0,0,1,1.688,27,25.313,25.313,0,0,1,27,1.688" fill="none" stroke="#fdb62b" stroke-linecap="round" stroke-linejoin="round" stroke-width="3"/>
    <path id="Path_139" data-name="Path 139" d="M52.092,30.375A25.687,25.687,0,0,0,52.317,27,25.313,25.313,0,0,0,27,1.688" fill="none" stroke="#fdb62b" stroke-linecap="round" stroke-linejoin="round" stroke-width="3"/>
    <path id="Path_140" data-name="Path 140" d="M45.565,27.1A18.583,18.583,0,0,0,27,45.709,18.585,18.585,0,0,0,45.565,27.1Z" fill="none" stroke="#fdb62b" stroke-linecap="round" stroke-linejoin="round" stroke-width="3"/>
    <path id="Path_141" data-name="Path 141" d="M31.885,33.131a20.592,20.592,0,0,0-4.86-21.319,20.59,20.59,0,0,0-4.833,21.4" fill="none" stroke="#fdb62b" stroke-linecap="round" stroke-linejoin="round" stroke-width="3"/>
    <path id="Path_142" data-name="Path 142" d="M27,45.709A18.585,18.585,0,0,0,8.438,27.1,18.583,18.583,0,0,0,27,45.709Z" fill="none" stroke="#fdb62b" stroke-linecap="round" stroke-linejoin="round" stroke-width="3"/>
    <path id="Path_143" data-name="Path 143" d="M27,52.313v-6.6" fill="none" stroke="#fdb62b" stroke-linecap="round" stroke-linejoin="round" stroke-width="3"/>
    <path id="Path_144" data-name="Path 144" d="M50.213,37.107a24.14,24.14,0,0,1-3.173,5.357" fill="none" stroke="#fdb62b" stroke-linecap="round" stroke-linejoin="round" stroke-width="3"/>
    <path id="Path_145" data-name="Path 145" d="M42.161,47.264a23.8,23.8,0,0,1-5.4,3.087" fill="none" stroke="#fdb62b" stroke-linecap="round" stroke-linejoin="round" stroke-width="3"/>
    <path id="Path_146" data-name="Path 146" d="M17.3,50.351a23.625,23.625,0,0,1-5.4-3.087" fill="none" stroke="#fdb62b" stroke-linecap="round" stroke-linejoin="round" stroke-width="3"/>
    <path id="Path_147" data-name="Path 147" d="M7.009,42.464a24.088,24.088,0,0,1-3.172-5.357" fill="none" stroke="#fdb62b" stroke-linecap="round" stroke-linejoin="round" stroke-width="3"/>
  </g>
</svg>
