<svg xmlns="http://www.w3.org/2000/svg" width="50.403" height="53.625" viewBox="0 0 50.403 53.625">
  <g id="Group_50" data-name="Group 50" transform="translate(-1.875 -0.188)">
    <path id="Path_169" data-name="Path 169" d="M44.086,1.688s.056,3.537,4.5,8.352a9.312,9.312,0,0,1,.709.81,6.525,6.525,0,1,1-11.747,3.917A15.415,15.415,0,0,1,44.087,1.688Z" fill="none" stroke="#fdb62b" stroke-linecap="round" stroke-linejoin="round" stroke-width="3"/>
    <path id="Path_170" data-name="Path 170" d="M44.086,52.313A4.828,4.828,0,0,0,48.9,47.1L46.633,20.79a6.543,6.543,0,0,1-5.175-.04L39.281,47.1a4.831,4.831,0,0,0,4.806,5.215Z" fill="none" stroke="#fdb62b" stroke-linecap="round" stroke-linejoin="round" stroke-width="3"/>
    <path id="Path_171" data-name="Path 171" d="M30.375,13.5,25.313,1.688,20.25,13.5V47.25a5.062,5.062,0,0,0,5.063,5.063h0a5.062,5.062,0,0,0,5.063-5.062Z" fill="none" stroke="#fdb62b" stroke-linecap="round" stroke-linejoin="round" stroke-width="3"/>
    <path id="Path_172" data-name="Path 172" d="M20.25,13.5l5.063,3.375L30.375,13.5" fill="none" stroke="#fdb62b" stroke-linecap="round" stroke-linejoin="round" stroke-width="3"/>
    <path id="Path_173" data-name="Path 173" d="M20.25,43.875H30.375" fill="none" stroke="#fdb62b" stroke-linecap="round" stroke-linejoin="round" stroke-width="3"/>
    <path id="Path_174" data-name="Path 174" d="M20.25,37.125H30.375" fill="none" stroke="#fdb62b" stroke-linecap="round" stroke-linejoin="round" stroke-width="3"/>
    <path id="Path_175" data-name="Path 175" d="M13.5,40.5,8.438,52.313,3.375,40.5V6.75A5.062,5.062,0,0,1,8.438,1.688h0A5.062,5.062,0,0,1,13.5,6.75Z" fill="none" stroke="#fdb62b" stroke-linecap="round" stroke-linejoin="round" stroke-width="3"/>
    <path id="Path_176" data-name="Path 176" d="M3.375,40.5H13.5" fill="none" stroke="#fdb62b" stroke-linecap="round" stroke-linejoin="round" stroke-width="3"/>
    <path id="Path_177" data-name="Path 177" d="M3.375,10.125H13.5" fill="none" stroke="#fdb62b" stroke-linecap="round" stroke-linejoin="round" stroke-width="3"/>
    <path id="Path_178" data-name="Path 178" d="M3.375,27H13.5" fill="none" stroke="#fdb62b" stroke-linecap="round" stroke-linejoin="round" stroke-width="3"/>
  </g>
</svg>
