<svg xmlns="http://www.w3.org/2000/svg" width="50.667" height="57.085" viewBox="0 0 50.667 57.085">
  <g id="Group_96" data-name="Group 96" transform="translate(-3.563 -0.626)">
    <path id="Path_148" data-name="Path 148" d="M36.151,24.907H15.412a16.5,16.5,0,1,0,20.739,0Z" transform="translate(0.365 1.969)" fill="none" stroke="#fdb62b" stroke-linecap="round" stroke-linejoin="round" stroke-width="3"/>
    <path id="Path_149" data-name="Path 149" d="M10.152,41.783H41.26" transform="translate(0.44 3.427)" fill="none" stroke="#fdb62b" stroke-linecap="round" stroke-linejoin="round" stroke-width="3"/>
    <path id="Path_150" data-name="Path 150" d="M30.7,44.7,16.031,8.033" transform="translate(0.948 0.51)" fill="none" stroke="#fdb62b" stroke-linecap="round" stroke-linejoin="round" stroke-width="3"/>
    <path id="Path_151" data-name="Path 151" d="M9.281,14.783l11.408,2.853" transform="translate(0.365 1.094)" fill="none" stroke="#fdb62b" stroke-linecap="round" stroke-linejoin="round" stroke-width="3"/>
    <path id="Path_152" data-name="Path 152" d="M22.854,2.126a.917.917,0,1,1-.917.917.917.917,0,0,1,.917-.917" transform="translate(1.458)" fill="none" stroke="#fdb62b" stroke-linecap="round" stroke-linejoin="round" stroke-width="3"/>
    <path id="Path_153" data-name="Path 153" d="M5.979,7.2a.917.917,0,1,1-.917.917A.917.917,0,0,1,5.979,7.2" transform="translate(0 0.438)" fill="none" stroke="#fdb62b" stroke-linecap="round" stroke-linejoin="round" stroke-width="3"/>
    <path id="Path_154" data-name="Path 154" d="M5.979,20.7a.917.917,0,1,1-.917.917.917.917,0,0,1,.917-.917" transform="translate(0 1.605)" fill="none" stroke="#fdb62b" stroke-linecap="round" stroke-linejoin="round" stroke-width="3"/>
    <path id="Path_155" data-name="Path 155" d="M26.156,26.366s11-9.167,11-18.333" transform="translate(1.823 0.51)" fill="none" stroke="#fdb62b" stroke-linecap="round" stroke-linejoin="round" stroke-width="3"/>
    <path id="Path_156" data-name="Path 156" d="M34.423,14.783h9.352" transform="translate(2.537 1.094)" fill="none" stroke="#fdb62b" stroke-linecap="round" stroke-linejoin="round" stroke-width="3"/>
    <path id="Path_157" data-name="Path 157" d="M44.792,4.657a.917.917,0,1,1-.917.917.917.917,0,0,1,.917-.917" transform="translate(3.354 0.219)" fill="none" stroke="#fdb62b" stroke-linecap="round" stroke-linejoin="round" stroke-width="3"/>
    <path id="Path_158" data-name="Path 158" d="M48.167,22.376a.917.917,0,1,1-.917.917.917.917,0,0,1,.917-.917" transform="translate(3.646 1.75)" fill="none" stroke="#fdb62b" stroke-linecap="round" stroke-linejoin="round" stroke-width="3"/>
  </g>
</svg>
