<svg xmlns="http://www.w3.org/2000/svg" xmlns:xlink="http://www.w3.org/1999/xlink" width="1347.362" height="1345.51" viewBox="0 0 1347.362 1345.51">
  <defs>
    <linearGradient id="linear-gradient" x1="0.5" x2="0.5" y2="1" gradientUnits="objectBoundingBox">
      <stop offset="0" stop-color="#f25b1e"/>
      <stop offset="1" stop-color="#ee491c"/>
    </linearGradient>
    <linearGradient id="linear-gradient-2" x1="0.5" y1="1" x2="0.5" gradientUnits="objectBoundingBox">
      <stop offset="0" stop-color="#f8ca6b"/>
      <stop offset="1" stop-color="#f15f1e"/>
    </linearGradient>
  </defs>
  <g id="Group_2" data-name="Group 2" transform="translate(236.418 299.178)">
    <path id="blob_1_" data-name="blob (1)" d="M394.819,495.69c29.353-34.192,39.03-85.8,61.61-129.026,22.58-42.9,58.384-77.093,60.642-112.575s-28.708-72.577-55.481-108.059c-27.1-35.482-50-69.351-81.931-95.8S306.759,4.746,263.536.875C220.312-3.318,174.83,7.649,138.7,31.841S75.8,93.129,50.32,132.482C24.515,172.157,0,213.768,0,255.379S24.515,338.6,51.61,376.018c26.773,37.418,55.8,70.642,91.608,101.285,36.127,30.321,79.351,58.384,125.8,63.868S365.144,530.2,394.819,495.69Z" transform="translate(408.827 747.153) rotate(-132)" opacity="0.342" fill="url(#linear-gradient-2)"/>
    <path id="blob_1_2" data-name="blob (1)" d="M394.819,495.69c29.353-34.192,39.03-85.8,61.61-129.026,22.58-42.9,58.384-77.093,60.642-112.575s-28.708-72.577-55.481-108.059c-27.1-35.482-50-69.351-81.931-95.8S306.759,4.746,263.536.875C220.312-3.318,174.83,7.649,138.7,31.841S75.8,93.129,50.32,132.482C24.515,172.157,0,213.768,0,255.379S24.515,338.6,51.61,376.018c26.773,37.418,55.8,70.642,91.608,101.285,36.127,30.321,79.351,58.384,125.8,63.868S365.144,530.2,394.819,495.69Z" transform="translate(408.827 747.153) rotate(-132)" opacity="0.342" fill="url(#linear-gradient-2)"/>
    <path id="Path_30" data-name="Path 30" d="M565.1-283.983c51.39-36.333,62.846-131.257,36.005-220.29A347.378,347.378,0,0,0,586.273-544.3q2.119-6.578,3.915-13.3c21.484-79.639,7.912-172.652-45.33-206.566C505.983-789.163,445.892-782.361,388-753.92c-57.642-28.612-129.042-24.1-192.481,4.193C116.485-714.7,49.684-642.3,57.177-576.575,64.37-511.011,145.555-452.283,240.8-431.649c11.126,2.41,22.435,4.3,33.809,5.656,14.914,41.156,44.371,78.357,81.983,106.659,43.268,32.721,97.575,53.549,144.308,53.548C525.225-265.787,547.5-271.432,565.1-283.983Z" transform="translate(52.359 924.142)" fill="none" stroke="#f0a126" stroke-width="2" stroke-dasharray="5"/>
    <g id="Ellipse_9" data-name="Ellipse 9" transform="translate(254 528.054)" fill="none" stroke="#f27420" stroke-width="2">
      <ellipse cx="33.5" cy="36" rx="33.5" ry="36" stroke="none"/>
      <ellipse cx="33.5" cy="36" rx="32.5" ry="35" fill="none"/>
    </g>
    <ellipse id="Ellipse_10" data-name="Ellipse 10" cx="12" cy="12" rx="12" ry="12" transform="translate(205 500.054)" fill="#f27420"/>
    <ellipse id="Ellipse_11" data-name="Ellipse 11" cx="12" cy="12" rx="12" ry="12" transform="translate(340 115.054)" fill="#f27420"/>
    <ellipse id="Ellipse_12" data-name="Ellipse 12" cx="12" cy="12" rx="12" ry="12" transform="translate(644 355.054)" fill="#f27420"/>
    <line id="Line_1" data-name="Line 1" y2="30" transform="translate(372.5 598.554)" fill="none" stroke="#f27420" stroke-width="2"/>
    <line id="Line_3" data-name="Line 3" y2="30" transform="translate(413.5 115.054)" fill="none" stroke="#f27420" stroke-width="2"/>
    <line id="Line_2" data-name="Line 2" x1="30" transform="translate(357.5 613.554)" fill="none" stroke="#f27420" stroke-width="2"/>
    <line id="Line_4" data-name="Line 4" x1="30" transform="translate(398.5 130.054)" fill="none" stroke="#f27420" stroke-width="2"/>
  </g>
</svg>
