<svg xmlns="http://www.w3.org/2000/svg" xmlns:xlink="http://www.w3.org/1999/xlink" width="100" height="50" viewBox="0 0 100 50"><defs><linearGradient id="a" x1="0.5" x2="0.5" y2="1" gradientUnits="objectBoundingBox"><stop offset="0" stop-color="#f0a126"/><stop offset="1" stop-color="#f25b1e"/></linearGradient></defs><g transform="translate(13502.84 7936.458)"><path d="M3076.261-2815.927v-30.235a11.067,11.067,0,0,0-.9-4.438,12.051,12.051,0,0,0-2.424-3.653,11.175,11.175,0,0,0-3.6-2.475,11.117,11.117,0,0,0-4.5-.9,10.925,10.925,0,0,0-4.417.9,11.17,11.17,0,0,0-3.6,2.475,11.484,11.484,0,0,0-2.385,3.653,11.5,11.5,0,0,0-.86,4.438l-.156,30.235h-7.976v-30.235a18.192,18.192,0,0,1,1.447-7.581,19.265,19.265,0,0,1,4.183-6.207,20.522,20.522,0,0,1,6.216-4.2,19.451,19.451,0,0,1,7.545-1.65H3065a19.457,19.457,0,0,1,7.546,1.65,20.534,20.534,0,0,1,6.216,4.2,19.271,19.271,0,0,1,4.183,6.207,18.177,18.177,0,0,1,1.447,7.581v30.235Zm38.427-.124a10.706,10.706,0,0,0-3.232-7.837,10.6,10.6,0,0,0-7.8-3.247v-8.312a18.565,18.565,0,0,1,13.659,5.671,18.74,18.74,0,0,1,5.645,13.725Zm-24.821,0v-49.876h8.273v49.876Zm38.927-.313a20.473,20.473,0,0,0-.5-4.381,18.228,18.228,0,0,0-1.422-3.993,8.1,8.1,0,0,0,2.389,1.053,11.406,11.406,0,0,0,2.906.35,7.383,7.383,0,0,0,4.518-1.119,3.81,3.81,0,0,0,1.077-1.265,3.414,3.414,0,0,0,.358-1.559,3.486,3.486,0,0,0-.438-1.752,3.789,3.789,0,0,0-1.316-1.312,27.191,27.191,0,0,0-6.271-2.372,39.11,39.11,0,0,1-4.225-1.491,18.271,18.271,0,0,1-3.454-2,8.181,8.181,0,0,1-2.63-3.171,8.934,8.934,0,0,1-.6-1.707l9.477-13.664a15.347,15.347,0,0,1,2.438-.189,15.85,15.85,0,0,1,4.244.552,13.486,13.486,0,0,1,3.7,1.659,14.281,14.281,0,0,1,3.048,2.644,15.966,15.966,0,0,1,2.292,3.511l-6.165,3.57a8.571,8.571,0,0,0-2.9-3.6,7.414,7.414,0,0,0-4.224-1.2,5.63,5.63,0,0,0-3.588,1.039,3.3,3.3,0,0,0-1.3,2.691,3.455,3.455,0,0,0,.366,1.593,3.673,3.673,0,0,0,1.1,1.259,20.51,20.51,0,0,0,5.606,2.371c1.155.361,2,.631,2.577.825s1.387.5,2.392.906a14.437,14.437,0,0,1,2.338,1.146,18.463,18.463,0,0,1,1.886,1.439,7.416,7.416,0,0,1,1.621,1.865,10.51,10.51,0,0,1,.956,2.318,10.5,10.5,0,0,1,.4,2.958,11.1,11.1,0,0,1-.936,4.636,9.868,9.868,0,0,1-2.81,3.571,12.887,12.887,0,0,1-4.311,2.278,18.338,18.338,0,0,1-5.441.76A21.509,21.509,0,0,1,3128.794-2816.365Zm-72.177-26.677a8.225,8.225,0,0,1,8.205-8.244,8.225,8.225,0,0,1,8.205,8.244,8.226,8.226,0,0,1-8.205,8.244A8.225,8.225,0,0,1,3056.617-2843.041Zm47.039,2.051,9.479-13.854h9.825l-9.609,13.854Z" transform="translate(-16548.289 -5070.53)" fill="url(#a)"/><path d="M1.258-5.746c0,.051.026.077.06.077.272.017,1.054.017,1.59.017A2.809,2.809,0,0,0,5.925-8.559c0-1.581-1-2.712-3-2.712-.782,0-1.36.017-1.607.026-.051.008-.06.025-.06.068Zm1.029-4.616c.2-.009.391-.017.629-.017A1.746,1.746,0,0,1,4.871-8.534,1.84,1.84,0,0,1,2.865-6.545c-.221,0-.408,0-.578-.009Zm8.245,3.834c.008-.043-.009-.068-.059-.068H7.9V-8.058h2.21c.034,0,.06-.009.06-.051v-.807c0-.051-.017-.06-.06-.06H7.9v-1.352h2.431c.051,0,.068-.034.06-.076l-.094-.791c-.009-.051-.026-.059-.076-.059H6.936c-.051,0-.068.025-.068.068v5.449c0,.043.017.068.076.068h3.383c.051,0,.068-.009.076-.068Zm2.21.944c1.283,0,2.066-.646,2.066-1.641,0-.671-.314-1.207-1.42-1.666l-.323-.136c-.671-.281-.867-.493-.867-.8s.229-.6.96-.6a2.655,2.655,0,0,1,1.284.281c.051.034.076,0,.076-.034v-.825c0-.059-.008-.085-.051-.11a3.116,3.116,0,0,0-1.3-.221c-1.283,0-1.972.7-1.972,1.607,0,.638.272,1.165,1.318,1.607l.408.17c.646.272.85.51.85.825,0,.366-.3.638-.994.638a2.86,2.86,0,0,1-1.513-.442c-.034-.017-.068,0-.068.034v.884a.126.126,0,0,0,.06.128A3.235,3.235,0,0,0,12.742-5.584Zm4.021-5.6c0-.051-.017-.068-.068-.068H15.8c-.042,0-.068.009-.068.068v5.44c0,.051.017.077.068.077h.892c.051,0,.068-.017.068-.077Zm4.624,3.307v1.318a2.158,2.158,0,0,1-.646.077,1.846,1.846,0,0,1-1.972-1.972,1.843,1.843,0,0,1,2.108-1.964,2.868,2.868,0,0,1,1.326.247c.034.017.068.008.068-.043v-.816a.1.1,0,0,0-.051-.1,3.534,3.534,0,0,0-1.377-.2,2.856,2.856,0,0,0-3.137,2.916,2.717,2.717,0,0,0,2.984,2.839,4.631,4.631,0,0,0,1.675-.289.057.057,0,0,0,.051-.076V-8.721c0-.051-.008-.068-.068-.068H20.426c-.034,0-.06.008-.06.051v.757c0,.051.009.068.068.076Zm3.035,2.21c.051,0,.068-.025.068-.077V-8.585c0-.774-.008-1.148-.042-1.581h.008c.331.825,1.887,3.57,2.329,4.437a.108.108,0,0,0,.111.059h1.08c.059,0,.085-.017.085-.077v-5.432c0-.051-.017-.076-.077-.076h-.816c-.051,0-.076.025-.076.068v2.831c0,.8.017,1.08.025,1.318h-.009c-.3-.637-1.6-3.035-2.227-4.157a.09.09,0,0,0-.1-.059h-1.2c-.042,0-.059.017-.059.059v5.449c0,.068.026.077.077.077Zm8.568-.859C33-6.57,32.98-6.6,32.929-6.6H30.354V-8.058h2.21c.034,0,.059-.009.059-.051v-.807c0-.051-.017-.06-.059-.06h-2.21v-1.352h2.431c.051,0,.068-.034.06-.076l-.094-.791c-.008-.051-.025-.059-.076-.059H29.393c-.051,0-.068.025-.068.068v5.449c0,.043.017.068.077.068h3.383c.051,0,.068-.009.076-.068Zm1.751.859c.043,0,.068-.017.068-.068V-7.811h.731c.093,0,.136.043.2.145.374.6.969,1.573,1.215,1.955a.142.142,0,0,0,.119.043h1.063c.051,0,.042-.043.017-.094C37.9-6.188,36.882-7.709,36.6-8.1a1.58,1.58,0,0,0,1.1-1.5c0-1.088-.8-1.675-2.159-1.675-.655,0-1.012.009-1.683.026-.051,0-.059.034-.059.076v5.432c0,.051.017.068.068.068Zm.068-3.018v-1.675c.136-.009.408-.017.7-.017.722,0,1.173.281,1.173.842,0,.544-.442.85-1.131.85Zm5.423,3.1c1.284,0,2.066-.646,2.066-1.641,0-.671-.315-1.207-1.419-1.666l-.323-.136c-.672-.281-.867-.493-.867-.8s.229-.6.96-.6a2.655,2.655,0,0,1,1.284.281c.051.034.076,0,.076-.034v-.825c0-.059-.009-.085-.051-.11a3.116,3.116,0,0,0-1.3-.221c-1.284,0-1.972.7-1.972,1.607,0,.638.272,1.165,1.318,1.607l.408.17c.646.272.85.51.85.825,0,.366-.3.638-.995.638a2.86,2.86,0,0,1-1.513-.442c-.034-.017-.068,0-.068.034v.884a.126.126,0,0,0,.06.128A3.235,3.235,0,0,0,40.231-5.584Z" transform="translate(-13445.968 -7923.119)" fill="#f25b1e"/></g></svg>