<svg xmlns="http://www.w3.org/2000/svg" xmlns:xlink="http://www.w3.org/1999/xlink" width="278.458" height="272.339" viewBox="0 0 278.458 272.339">
  <defs>
    <linearGradient id="linear-gradient" x1="0.5" x2="0.5" y2="1" gradientUnits="objectBoundingBox">
      <stop offset="0" stop-color="#f0a126"/>
      <stop offset="1" stop-color="#f25b1e"/>
    </linearGradient>
    <filter id="Path_116" x="0" y="122.61" width="278.458" height="149.729" filterUnits="userSpaceOnUse">
      <feOffset dx="-3" dy="3" input="SourceAlpha"/>
      <feGaussianBlur stdDeviation="3.5" result="blur"/>
      <feFlood flood-color="#f15c1e" flood-opacity="0.514"/>
      <feComposite operator="in" in2="blur"/>
      <feComposite in="SourceGraphic"/>
    </filter>
  </defs>
  <g id="Group_98" data-name="Group 98" transform="translate(-90.77 -102.983)">
    <path id="Path_115" data-name="Path 115" d="M3124.775-2737.2v-77.843a28.5,28.5,0,0,0-2.314-11.428,31,31,0,0,0-6.242-9.405,28.777,28.777,0,0,0-9.26-6.373,28.637,28.637,0,0,0-11.576-2.325,28.143,28.143,0,0,0-11.374,2.325,28.792,28.792,0,0,0-9.26,6.373,29.6,29.6,0,0,0-6.141,9.405,29.634,29.634,0,0,0-2.213,11.428l-.4,77.843h-20.534v-77.843a46.86,46.86,0,0,1,3.724-19.519,49.611,49.611,0,0,1,10.771-15.979,52.874,52.874,0,0,1,16-10.822,50.059,50.059,0,0,1,19.426-4.249h.4a50.071,50.071,0,0,1,19.428,4.249,52.9,52.9,0,0,1,16,10.822,49.625,49.625,0,0,1,10.769,15.979,46.8,46.8,0,0,1,3.724,19.519v77.843Zm98.933-.318a27.561,27.561,0,0,0-8.322-20.177,27.3,27.3,0,0,0-20.08-8.359v-21.4a47.8,47.8,0,0,1,35.168,14.6,48.246,48.246,0,0,1,14.534,35.336Zm-63.9,0v-128.411h21.3v128.411Zm100.223-.806a52.809,52.809,0,0,0-1.3-11.281,47.022,47.022,0,0,0-3.661-10.281,20.848,20.848,0,0,0,6.151,2.711,29.322,29.322,0,0,0,7.481.9c5.266,0,9.178-.969,11.631-2.881a9.815,9.815,0,0,0,2.771-3.259,8.777,8.777,0,0,0,.922-4.012,8.961,8.961,0,0,0-1.128-4.51,9.73,9.73,0,0,0-3.386-3.379c-2.994-1.865-8.426-3.919-16.146-6.107a100.511,100.511,0,0,1-10.877-3.84,47.006,47.006,0,0,1-8.893-5.146,21.063,21.063,0,0,1-6.773-8.163,23.074,23.074,0,0,1-1.532-4.395l24.4-35.18a39.61,39.61,0,0,1,6.276-.486,40.778,40.778,0,0,1,10.928,1.423,34.694,34.694,0,0,1,9.527,4.27,36.766,36.766,0,0,1,7.848,6.808,41.136,41.136,0,0,1,5.9,9.038L3284.3-2806.9a22.06,22.06,0,0,0-7.456-9.26,19.09,19.09,0,0,0-10.876-3.087c-3.9,0-7.012.9-9.237,2.675a8.493,8.493,0,0,0-3.352,6.928,8.9,8.9,0,0,0,.941,4.1,9.464,9.464,0,0,0,2.821,3.241c2.5,1.867,7.354,3.921,14.434,6.106,2.973.931,5.143,1.626,6.636,2.125s3.569,1.285,6.157,2.333a37.183,37.183,0,0,1,6.02,2.95,47.5,47.5,0,0,1,4.858,3.7,19.079,19.079,0,0,1,4.174,4.8,27.091,27.091,0,0,1,2.462,5.969,27.051,27.051,0,0,1,1.026,7.614,28.573,28.573,0,0,1-2.41,11.936,25.4,25.4,0,0,1-7.234,9.193,33.2,33.2,0,0,1-11.1,5.866,47.24,47.24,0,0,1-14.009,1.955A55.532,55.532,0,0,1,3260.028-2738.323ZM3074.2-2807a21.177,21.177,0,0,1,21.126-21.225A21.176,21.176,0,0,1,3116.451-2807a21.177,21.177,0,0,1-21.125,21.226A21.177,21.177,0,0,1,3074.2-2807Zm121.107,5.282,24.407-35.669h25.295l-24.74,35.669Z" transform="translate(-2941.178 2968.911)" fill="url(#linear-gradient)"/>
    <g transform="matrix(1, 0, 0, 1, 90.77, 102.98)" filter="url(#Path_116)">
      <path id="Path_116-2" data-name="Path 116" d="M3159.806-2819.274v-128.411h21.3v128.411Zm-64.42-.32a50,50,0,0,1-19.428-4.247,52.825,52.825,0,0,1-16-10.82,49.624,49.624,0,0,1-10.772-15.98,46.867,46.867,0,0,1-3.724-19.52V-2948h20.533l.4,77.842a29.607,29.607,0,0,0,2.215,11.428,29.562,29.562,0,0,0,6.14,9.406,28.808,28.808,0,0,0,9.26,6.373,28.158,28.158,0,0,0,11.376,2.327,28.655,28.655,0,0,0,11.575-2.327,28.8,28.8,0,0,0,9.26-6.373,30.986,30.986,0,0,0,6.24-9.406,28.5,28.5,0,0,0,2.316-11.428V-2948h20.937v77.842a46.845,46.845,0,0,1-3.726,19.52,49.615,49.615,0,0,1-10.769,15.98,52.878,52.878,0,0,1-16,10.82,50,50,0,0,1-19.427,4.247Zm164.307-28.467-24.4-35.18a22.988,22.988,0,0,1,1.534-4.395,21.035,21.035,0,0,1,6.772-8.163,47.1,47.1,0,0,1,8.893-5.146,100.691,100.691,0,0,1,10.878-3.841c7.718-2.185,13.15-4.24,16.144-6.105a9.725,9.725,0,0,0,3.388-3.378,8.957,8.957,0,0,0,1.127-4.51,8.774,8.774,0,0,0-.923-4.012,9.792,9.792,0,0,0-2.771-3.259c-2.451-1.912-6.364-2.881-11.63-2.881a29.3,29.3,0,0,0-7.481.9,20.845,20.845,0,0,0-6.151,2.712,46.927,46.927,0,0,0,3.66-10.282,52.694,52.694,0,0,0,1.3-11.281,55.6,55.6,0,0,1,8.13-.574,47.229,47.229,0,0,1,14.007,1.955,33.182,33.182,0,0,1,11.1,5.866,25.37,25.37,0,0,1,7.235,9.193,28.56,28.56,0,0,1,2.411,11.936,27.073,27.073,0,0,1-1.027,7.613,26.984,26.984,0,0,1-2.463,5.968,19.045,19.045,0,0,1-4.173,4.8,47.382,47.382,0,0,1-4.857,3.7,37.049,37.049,0,0,1-6.02,2.948c-2.588,1.048-4.659,1.833-6.157,2.335s-3.663,1.195-6.636,2.125c-7.081,2.185-11.936,4.24-14.433,6.107a9.464,9.464,0,0,0-2.822,3.241,8.908,8.908,0,0,0-.94,4.1,8.495,8.495,0,0,0,3.351,6.928c2.225,1.775,5.333,2.675,9.237,2.675a19.09,19.09,0,0,0,10.876-3.088,22.051,22.051,0,0,0,7.457-9.26l15.872,9.192a41.276,41.276,0,0,1-5.9,9.037,36.867,36.867,0,0,1-7.85,6.808,34.68,34.68,0,0,1-9.527,4.27,40.767,40.767,0,0,1-10.928,1.424A39.618,39.618,0,0,1,3259.693-2848.061Zm-39.98.25-24.407-35.669h24.961l24.74,35.669ZM3074.2-2878.2a21.175,21.175,0,0,1,21.124-21.226,21.175,21.175,0,0,1,21.125,21.226,21.175,21.175,0,0,1-21.125,21.225A21.175,21.175,0,0,1,3074.2-2878.2Zm121.1-40.952a27.3,27.3,0,0,0,20.08-8.359,27.56,27.56,0,0,0,8.321-20.176h21.3a48.247,48.247,0,0,1-14.534,35.336,47.791,47.791,0,0,1-35.167,14.6Z" transform="translate(-3031.95 3078.11)" fill="#f15b1e" opacity="0.21"/>
    </g>
    <path id="Path_184" data-name="Path 184" d="M1.258,3.061c0,.131.066.2.153.2.7.044,2.714.044,4.092.044,3.7,0,7.769-2.145,7.769-7.484,0-4.07-2.582-6.981-7.725-6.981-2.013,0-3.5.044-4.136.066-.131.022-.153.066-.153.175ZM3.906-8.822c.525-.022,1.007-.044,1.619-.044,2.954,0,5.033,1.576,5.033,4.749C10.559-.791,8.48,1,5.394,1,4.825,1,4.344,1,3.906.982Zm21.227,9.87c.022-.109-.022-.175-.153-.175H18.349V-2.892h5.69c.088,0,.153-.022.153-.131V-5.1c0-.131-.044-.153-.153-.153h-5.69v-3.48h6.259c.131,0,.175-.088.153-.2l-.241-2.035c-.022-.131-.066-.153-.2-.153H15.876c-.131,0-.175.066-.175.175V3.083c0,.109.044.175.2.175h8.71c.131,0,.175-.022.2-.175Zm5.69,2.429c3.3,0,5.318-1.663,5.318-4.224,0-1.729-.81-3.108-3.655-4.289l-.832-.35c-1.729-.722-2.232-1.269-2.232-2.057C29.423-8.21,30.014-9,31.9-9a6.836,6.836,0,0,1,3.3.722c.131.088.2,0,.2-.088v-2.123c0-.153-.022-.219-.131-.284a8.022,8.022,0,0,0-3.348-.569c-3.3,0-5.077,1.794-5.077,4.136,0,1.641.7,3,3.392,4.136l1.05.438c1.663.7,2.188,1.313,2.188,2.123,0,.941-.766,1.641-2.56,1.641A7.364,7.364,0,0,1,27.015,0c-.088-.044-.175,0-.175.088V2.36a.325.325,0,0,0,.153.328A8.329,8.329,0,0,0,30.823,3.476ZM41.174-10.945c0-.131-.044-.175-.175-.175H38.7c-.109,0-.175.022-.175.175V3.061c0,.131.044.2.175.2H41c.131,0,.175-.044.175-.2Zm11.9,8.513V.96a5.556,5.556,0,0,1-1.663.2A4.753,4.753,0,0,1,46.339-3.92c0-3.173,1.9-5.1,5.427-5.055a7.385,7.385,0,0,1,3.414.635c.088.044.175.022.175-.109v-2.1a.265.265,0,0,0-.131-.263,9.1,9.1,0,0,0-3.545-.525c-4.836,0-8.075,2.954-8.075,7.506,0,4.049,2.56,7.309,7.681,7.309A11.924,11.924,0,0,0,55.6,2.732a.148.148,0,0,0,.131-.2V-4.6c0-.131-.022-.175-.175-.175H50.606c-.088,0-.153.022-.153.131v1.948c0,.131.022.175.175.2Zm7.813,5.69c.131,0,.175-.066.175-.2V-4.249c0-1.991-.022-2.954-.109-4.07h.022c.853,2.123,4.858,9.191,6,11.423a.278.278,0,0,0,.284.153h2.779c.153,0,.219-.044.219-.2V-10.923c0-.131-.044-.2-.2-.2h-2.1c-.131,0-.2.066-.2.175v7.287c0,2.057.044,2.779.066,3.392h-.022c-.766-1.641-4.114-7.813-5.734-10.7a.232.232,0,0,0-.263-.153H58.725c-.109,0-.153.044-.153.153V3.061c0,.175.066.2.2.2Zm22.059-2.21c.022-.109-.022-.175-.153-.175H76.167V-2.892h5.69c.088,0,.153-.022.153-.131V-5.1c0-.131-.044-.153-.153-.153h-5.69v-3.48h6.259c.131,0,.175-.088.153-.2l-.241-2.035c-.022-.131-.066-.153-.2-.153H73.694c-.131,0-.175.066-.175.175V3.083c0,.109.044.175.2.175h8.71c.131,0,.175-.022.2-.175Zm4.508,2.21c.109,0,.175-.044.175-.175v-5.34h1.882c.241,0,.35.109.5.372.963,1.532,2.495,4.049,3.129,5.033a.365.365,0,0,0,.306.109h2.735c.131,0,.109-.109.044-.241C95.6,1.923,92.974-1.995,92.252-3a4.068,4.068,0,0,0,2.823-3.852c0-2.8-2.057-4.311-5.559-4.311-1.685,0-2.6.022-4.333.066-.131,0-.153.088-.153.2V3.083c0,.131.044.175.175.175Zm.175-7.769V-8.822c.35-.022,1.05-.044,1.794-.044,1.86,0,3.02.722,3.02,2.167,0,1.4-1.138,2.188-2.911,2.188ZM101.6,3.476c3.3,0,5.318-1.663,5.318-4.224,0-1.729-.81-3.108-3.655-4.289l-.832-.35C100.7-6.109,100.2-6.656,100.2-7.444c0-.766.591-1.554,2.473-1.554a6.836,6.836,0,0,1,3.3.722c.131.088.2,0,.2-.088v-2.123c0-.153-.022-.219-.131-.284a8.022,8.022,0,0,0-3.348-.569c-3.3,0-5.077,1.794-5.077,4.136,0,1.641.7,3,3.392,4.136l1.05.438c1.663.7,2.188,1.313,2.188,2.123,0,.941-.766,1.641-2.56,1.641A7.364,7.364,0,0,1,97.788,0c-.088-.044-.175,0-.175.088V2.36a.325.325,0,0,0,.153.328A8.329,8.329,0,0,0,101.6,3.476Z" transform="translate(252.671 119.472)" fill="#f25b1e"/>
  </g>
</svg>
